<svg xmlns="http://www.w3.org/2000/svg" viewBox="0 0 128 128">
 <defs><linearGradient id="g" x1="0" y1="0" x2="1" y2="1"><stop offset="0" stop-color="#fff8e6"/><stop offset="1" stop-color="#f3d78b"/></linearGradient></defs>
 <rect width="128" height="128" rx="24" fill="url(#g)"/>
 <circle cx="64" cy="57" r="30" fill="#f2c49b"/>
 <path d="M34 54c2-23 17-37 30-37s28 14 30 37c-9-9-20-13-30-13S43 45 34 54Z" fill="#fff" stroke="#d5b46a" stroke-width="2"/>
 <path d="M35 78c6 25 17 36 29 36s23-11 29-36c-9 8-18 12-29 12s-20-4-29-12Z" fill="#fff" stroke="#d5b46a" stroke-width="2"/>
 <circle cx="53" cy="58" r="3" fill="#5b4430"/><circle cx="75" cy="58" r="3" fill="#5b4430"/>
 <path d="M57 72c5 3 9 3 14 0" fill="none" stroke="#8b5e3c" stroke-width="2" stroke-linecap="round"/>
 <path d="M24 114h80" stroke="#c69c4b" stroke-width="3" stroke-linecap="round"/>
 <text x="64" y="124" text-anchor="middle" font-family="Arial,sans-serif" font-size="9" font-weight="700" fill="#7b5a25">ॐ साई राम</text>
</svg>
